# xmcd CD database file
#
# Track frame offsets:
#	150
#	22284
#	33877
#	60978
#	78691
#	88927
#	110705
#	134502
#	152804
#	180864
#	212000
#	233680
#
# Disc length: 3436 seconds
#
# Revision: 0
# Processed by: cddbd v1.5.1PL0 Copyright (c) Steve Scherf et al.
# Submitted via: CDex 1.51
#
DISCID=9d0d6a0c
DTITLE=shantiprem - klingende mandalas
DYEAR=1998
DGENRE=New Age
TTITLE0=flowering
TTITLE1=one spirit
TTITLE2=inside
TTITLE3=sternenhimmel
TTITLE4=meditation
TTITLE5=lovers dance
TTITLE6=simple things
TTITLE7=lauschen
TTITLE8=wings
TTITLE9=die schönste magie
TTITLE10=gentle smile
TTITLE11=frühling
EXTD=YEAR: 1998
EXTT0=
EXTT1=
EXTT2=
EXTT3=
EXTT4=
EXTT5=
EXTT6=
EXTT7=
EXTT8=
EXTT9=
EXTT10=
EXTT11=
PLAYORDER=
